<?xml version="1.0" encoding="UTF-8" standalone="no"?>
<!-- Created with Inkscape (http://www.inkscape.org/) -->

<svg
   xmlns:dc="http://purl.org/dc/elements/1.1/"
   xmlns:cc="http://creativecommons.org/ns#"
   xmlns:rdf="http://www.w3.org/1999/02/22-rdf-syntax-ns#"
   xmlns:svg="http://www.w3.org/2000/svg"
   xmlns="http://www.w3.org/2000/svg"
   xmlns:sodipodi="http://sodipodi.sourceforge.net/DTD/sodipodi-0.dtd"
   xmlns:inkscape="http://www.inkscape.org/namespaces/inkscape"
   width="240px"
   height="240px"
   viewBox="0 0 240 240"
   version="1.1"
   id="SVGRoot"
   inkscape:version="0.92.5 (2060ec1f9f, 2020-04-08)"
   sodipodi:docname="logo-planet.svg">
  <defs
     id="defs1944" />
  <sodipodi:namedview
     id="base"
     pagecolor="#ffffff"
     bordercolor="#666666"
     borderopacity="1.0"
     inkscape:pageopacity="0.0"
     inkscape:pageshadow="2"
     inkscape:zoom="0.98994949"
     inkscape:cx="115.3424"
     inkscape:cy="60.060948"
     inkscape:document-units="px"
     inkscape:current-layer="layer1"
     showgrid="false"
     inkscape:window-width="1366"
     inkscape:window-height="705"
     inkscape:window-x="-8"
     inkscape:window-y="-8"
     inkscape:window-maximized="1" />
  <metadata
     id="metadata1947">
    <rdf:RDF>
      <cc:Work
         rdf:about="">
        <dc:format>image/svg+xml</dc:format>
        <dc:type
           rdf:resource="http://purl.org/dc/dcmitype/StillImage" />
        <dc:title></dc:title>
      </cc:Work>
    </rdf:RDF>
  </metadata>
  <g
     inkscape:label="Capa 1"
     inkscape:groupmode="layer"
     id="layer1">
    <g
       id="g2632"
       transform="matrix(4.6305743,0,0,4.6305743,-29.430807,-870.89307)"
       style="stroke-width:0.21595593">
      <path
         sodipodi:nodetypes="cscssscsscscsccscccsssscscscc"
         inkscape:connector-curvature="0"
         id="path896"
         d="m 16.01139,236.79501 c 0,0 -11.0737561,-15.02867 -3.61592,-28.47534 7.45784,-13.44671 20.00056,-9.3788 20.00056,-9.3788 0,0 2.09045,0.68858 3.25752,1.33302 1.16705,0.64444 2.08867,1.52723 3.36697,2.70665 1.27828,1.17941 1.67024,2.31645 2.00394,3.92136 0.33369,1.60492 -0.0689,3.39523 -1.73558,5.31619 0,0 0.11299,-2.48595 -0.77686,-4.56935 -0.88985,-2.08338 -2.78256,-3.76422 -7.01996,-4.41396 -8.47482,-1.29947 -12.26024,5.31089 -12.26024,5.31089 0,0 -6.10186,7.96632 1.41247,18.47506 7.51434,10.50877 21.07405,5.19789 21.07405,5.19789 0,0 9.03979,-2.31646 13.7292,-12.9947 4.68939,-10.67825 -0.5085,-19.66156 -0.5085,-19.66156 0,0 -2.88143,-6.15836 -7.11884,-9.2093 0,0 8.22142,9.96972 6.6234,20.75639 -1.59803,10.78666 -8.86905,14.86162 -8.86905,14.86162 0,0 -7.69814,5.90855 -17.30293,0.88016 0,0 -8.8703,-6.66685 -3.55942,-11.6952 0,0 -1.07348,6.15832 7.74033,8.87027 2.20345,0.67798 4.14206,0.61794 5.81055,0.14653 1.66848,-0.4714 3.06682,-1.35419 4.18974,-2.32173 1.12291,-0.96755 1.9704,-2.01983 2.53715,-2.83023 0.56675,-0.81039 0.85277,-1.37891 0.85277,-1.37891 0,0 4.7459,-8.9833 -2.42945,-17.68411 -7.17533,-8.70081 -18.1361,-5.81937 -18.1361,-5.81937 0,0 -11.24326,1.97746 -15.9891601,12.59922 -4.745885,10.62177 -0.62148,19.26606 -0.62148,19.26606 0,0 2.5989401,7.00583 7.3448401,10.79125 z"
         style="fill:#ffffff;fill-opacity:1;stroke:none;stroke-width:0.29791716;stroke-linecap:butt;stroke-linejoin:miter;stroke-miterlimit:4;stroke-dasharray:none;stroke-opacity:1" />
      <circle
         r="3.3334272"
         cy="191.75084"
         cx="42.712601"
         id="path927"
         style="opacity:1;fill:#ffffff;fill-opacity:1;stroke:none;stroke-width:0.21629602;stroke-linecap:square;stroke-linejoin:miter;stroke-miterlimit:4;stroke-dasharray:none;stroke-dashoffset:0;stroke-opacity:1;paint-order:stroke fill markers" />
      <circle
         r="2.2148087"
         cy="190.34921"
         cx="33.184464"
         id="path927-1"
         style="opacity:1;fill:#ffffff;fill-opacity:1;stroke:none;stroke-width:0.21629602;stroke-linecap:square;stroke-linejoin:miter;stroke-miterlimit:4;stroke-dasharray:none;stroke-dashoffset:0;stroke-opacity:1;paint-order:stroke fill markers" />
      <circle
         r="1.2160422"
         cy="191.66759"
         cx="25.074493"
         id="path927-1-3"
         style="opacity:1;fill:#ffffff;fill-opacity:1;stroke:none;stroke-width:0.21629602;stroke-linecap:square;stroke-linejoin:miter;stroke-miterlimit:4;stroke-dasharray:none;stroke-dashoffset:0;stroke-opacity:1;paint-order:stroke fill markers" />
      <circle
         transform="rotate(-179.01546)"
         r="3.3334272"
         cy="-235.69032"
         cx="-25.725887"
         id="path927-7"
         style="opacity:1;fill:#ffffff;fill-opacity:1;stroke:none;stroke-width:0.21629602;stroke-linecap:square;stroke-linejoin:miter;stroke-miterlimit:4;stroke-dasharray:none;stroke-dashoffset:0;stroke-opacity:1;paint-order:stroke fill markers" />
      <circle
         transform="rotate(-179.01546)"
         r="2.2148087"
         cy="-237.09193"
         cx="-35.254017"
         id="path927-1-5"
         style="opacity:1;fill:#ffffff;fill-opacity:1;stroke:none;stroke-width:0.21629602;stroke-linecap:square;stroke-linejoin:miter;stroke-miterlimit:4;stroke-dasharray:none;stroke-dashoffset:0;stroke-opacity:1;paint-order:stroke fill markers" />
      <circle
         transform="rotate(-179.01546)"
         r="1.2160422"
         cy="-235.77356"
         cx="-43.363956"
         id="path927-1-3-7"
         style="opacity:1;fill:#ffffff;fill-opacity:1;stroke:none;stroke-width:0.21629602;stroke-linecap:square;stroke-linejoin:miter;stroke-miterlimit:4;stroke-dasharray:none;stroke-dashoffset:0;stroke-opacity:1;paint-order:stroke fill markers" />
      <circle
         transform="rotate(-179.01546)"
         r="0.50980747"
         cy="-232.72176"
         cx="-49.990131"
         id="path927-1-3-7-9"
         style="opacity:1;fill:#ffffff;fill-opacity:1;stroke:none;stroke-width:0.21629602;stroke-linecap:square;stroke-linejoin:miter;stroke-miterlimit:4;stroke-dasharray:none;stroke-dashoffset:0;stroke-opacity:1;paint-order:stroke fill markers" />
      <circle
         r="0.59455568"
         cy="194.13847"
         cx="19.683807"
         id="path927-1-3-3"
         style="opacity:1;fill:#ffffff;fill-opacity:1;stroke:none;stroke-width:0.21629602;stroke-linecap:square;stroke-linejoin:miter;stroke-miterlimit:4;stroke-dasharray:none;stroke-dashoffset:0;stroke-opacity:1;paint-order:stroke fill markers" />
    </g>
  </g>
</svg>
